<svg xmlns="http://www.w3.org/2000/svg" width="436.232" height="480.363" viewBox="0 0 436.232 480.363">
  <g id="Grupo_1292" data-name="Grupo 1292" transform="translate(150.39 557.764) rotate(-17)">
    <path id="Caminho_1831" data-name="Caminho 1831" d="M176.882-237.279a231.24,231.24,0,0,0-30.538-16.575H15.275c.45.631.9,1.351,1.441,2.072,0,0,45.041,38.015,69,51.167,24.052,13.152,55.941,20.629,71.975,19.458C173.82-182.419,198.863-222.505,176.882-237.279Z" transform="translate(-1.515 -28.277)" fill="#311d69"/>
    <path id="Caminho_1832" data-name="Caminho 1832" d="M123.513-393.99S249-400.476,252.871-383.721c3.783,16.665-88.641,27.025-113.323,23.6C114.865-363.722,123.513-393.99,123.513-393.99Z" transform="translate(-12.104 -14.256)" fill="#ffe1e1"/>
    <path id="Caminho_1833" data-name="Caminho 1833" d="M314.734-57.154s.631,17.206,3.783,21.44a8.6,8.6,0,0,1-6.126,3.874,87.5,87.5,0,0,1-17.746.721c.721-6.936-.811-18.917-1.171-22.7Z" transform="translate(-29.106 -47.785)" fill="#fff"/>
    <path id="Caminho_1834" data-name="Caminho 1834" d="M315.695-17.189c11.621-1.081,24.5-4.144,30.808-5.765a8.238,8.238,0,0,1,.631,2.252c.721,4.144-41.348,11.621-49.095,8.918-2.072-.721-3.333-2.793-3.964-5.4A132.249,132.249,0,0,0,315.695-17.189Z" transform="translate(-29.166 -51.177)" fill="#fff"/>
    <path id="Caminho_1835" data-name="Caminho 1835" d="M315.666-18.22a143.4,143.4,0,0,1-21.53.09,19.4,19.4,0,0,1,.27-8.468,13.5,13.5,0,0,0,.36-2.162,94.618,94.618,0,0,0,17.746-.721,8.6,8.6,0,0,0,6.126-3.874c.09.09.18.18.18.27,1.441,1.621,5.045,2.342,9.909,3.423,7.207,2.162,15.044-.991,17.746,5.675C340.079-22.364,327.287-19.3,315.666-18.22Z" transform="translate(-29.137 -50.146)" fill="#1d1240"/>
    <path id="Caminho_1836" data-name="Caminho 1836" d="M132.932-331.754s78.462,7.117,119.9,25.854,48.014,83.146,51.527,96.028,19.278,97.2,10.269,124.944c-4.955,15.314-39.006,22.07-45.492,8.558S237.247-216.9,224-233.925c-8.288-10.63-99.541-1.621-131.97-24.5S68.163-310.4,68.163-310.4Z" transform="translate(-6.659 -20.551)" fill="#2e87be"/>
    <path id="Caminho_1837" data-name="Caminho 1837" d="M132.871-48.95s-5.675,16.3-4.234,21.349a8.431,8.431,0,0,1-7.116,1.441,94.549,94.549,0,0,1-16.845-5.675c3.153-6.216,6.035-17.926,7.026-21.62Z" transform="translate(-10.381 -48.152)" fill="#fff"/>
    <path id="Caminho_1838" data-name="Caminho 1838" d="M120.045-11.1c11.26,3.243,24.322,4.955,30.808,5.765a11.081,11.081,0,0,1-.18,2.342c-.811,4.144-42.7-4.054-49-9.369-1.711-1.441-2.162-3.783-1.711-6.4A137.679,137.679,0,0,0,120.045-11.1Z" transform="translate(-9.897 -51.594)" fill="#fff"/>
    <path id="Caminho_1839" data-name="Caminho 1839" d="M120.053-12.158a133.1,133.1,0,0,1-20.178-7.657,19.819,19.819,0,0,1,3.243-7.747,17.67,17.67,0,0,0,1.081-1.892,87.762,87.762,0,0,0,16.845,5.675,8.516,8.516,0,0,0,7.116-1.441c0,.09.09.27.09.36.811,1.982,3.874,3.964,8.017,6.756,5.945,4.594,14.413,4.5,14.5,11.711C144.376-7.2,131.314-9.006,120.053-12.158Z" transform="translate(-9.905 -50.532)" fill="#1d1240"/>
    <path id="Caminho_1840" data-name="Caminho 1840" d="M71.232-338.554s54.59,13.242,96.027,31.979,49.815,51.167,38.375,100.261c-3.063,13.062-38.825,100.532-47.744,128.277-4.955,15.314-55.04,15.4-61.616,1.892-6.486-13.512,51.257-147.735,42.158-158.364-8.738-10.179-84.5-7.927-116.926-30.808S6.463-317.2,6.463-317.2Z" transform="translate(-0.179 -19.876)" fill="#4bb4d4"/>
    <path id="Caminho_1841" data-name="Caminho 1841" d="M212.842-334.914s-69.994-24.412-86.569-30.178C97-420.673,164.828-438.239,157.081-468.867c-8.107-31.979-81.614-57.833-115.575-32.7-11.26,8.288-37.925,63.6-38.555,137.736,0,0-9.459,62.967,5.5,80.083S107-215.375,122.129-221.141c15.134-5.675,53.148-69.453,53.148-69.453s-37.654-46.753-37.114-47.2Z" transform="translate(0 -2.707)" fill="#fff"/>
    <path id="Caminho_1842" data-name="Caminho 1842" d="M109.36-505.079s26.664,3.964,32.97,14.143c6.306,10.089-15.854,84.948-23.962,86.3C110.26-403.466,93.685-510.844,109.36-505.079Z" transform="translate(-10.202 -3.339)" fill="#ffe1e1"/>
    <path id="Caminho_1843" data-name="Caminho 1843" d="M130.9-480.954l-4.5.721s-9.639,41.708-13.422,64.319c2.252,8.558,4.594,14.053,6.4,13.693,1.171-.18,2.7-1.982,4.324-4.864v-.9C124.145-419.068,130.9-480.954,130.9-480.954Z" transform="translate(-11.205 -5.754)" fill="#311d69"/>
    <path id="Caminho_1844" data-name="Caminho 1844" d="M243.5-340.959H189.992A4.362,4.362,0,0,1,185.668-346l12.071-73.957a4.358,4.358,0,0,1,4.324-3.693h53.509a4.362,4.362,0,0,1,4.324,5.045l-12.071,73.957A4.441,4.441,0,0,1,243.5-340.959Z" transform="translate(-18.408 -11.436)" fill="#1d1240"/>
    <path id="Caminho_1846" data-name="Caminho 1846" d="M151.386-522.29s8.828-3.423,5.315-10.81c-5.225-10.99-20.629-3.783-23.421-.45-4.144,4.954-5.4,15.4-5.4,15.4S147.153-516.074,151.386-522.29Z" transform="translate(-12.682)" fill="#311d69"/>
    <path id="Caminho_1847" data-name="Caminho 1847" d="M131.688-521.654l-15.224,16.215c-1.261,2.7,9.909,16.755,15.674,15.224,1.712-.45,2.522-3.153,2.612-6.486l-.09-18.467Z" transform="translate(-11.541 -1.717)" fill="#e7738e"/>
    <path id="Caminho_1848" data-name="Caminho 1848" d="M135.986-510.75c-2.7-1.892-6.486-4.5-6.486-4.5a14.063,14.063,0,0,0,.631,10.269,13.579,13.579,0,0,0,5.855,6.216Z" transform="translate(-12.776 -2.352)" fill="#311d69"/>
    <path id="Caminho_1849" data-name="Caminho 1849" d="M139.583-526.907l-8.918,8.558a7.483,7.483,0,0,0,.45,10.45c2.342,2.252,4.144,3.153,7.927,4.684,3.153,1.261,6.216-.811,8.288-4.684a42.427,42.427,0,0,0,4.144-13.332C152.375-527.9,145.8-532.042,139.583-526.907Z" transform="translate(-12.77 -0.968)" fill="#e7738e"/>
    <path id="Caminho_1850" data-name="Caminho 1850" d="M143.075-514.854a68.6,68.6,0,0,1,6.486,3.6C149.471-511.251,143.525-508.548,143.075-514.854Z" transform="translate(-14.19 -2.391)" fill="#fff"/>
    <path id="Caminho_1851" data-name="Caminho 1851" d="M142.105-505.473c-2.973-2.432-8.107,1.261-11.531-6.666-.631-1.441-.09-3.874.27-5.315l-.18.18a7.483,7.483,0,0,0,.45,10.45c2.342,2.252,4.144,3.153,7.927,4.684a5.247,5.247,0,0,0,5.4-1.081C143.907-503.4,143.006-504.752,142.105-505.473Z" transform="translate(-12.77 -2.134)" fill="#ac253c"/>
    <path id="Caminho_1852" data-name="Caminho 1852" d="M138.108-522.459a8.5,8.5,0,0,1,.9-2.072c.721-1.261,1.441-3.333-.991-3.423-3.513-.09-6.846,6.126-3.964,8.288C136.126-518.045,137.568-520.657,138.108-522.459Z" transform="translate(-13.187 -1.092)" fill="#e7738e"/>
    <path id="Caminho_1853" data-name="Caminho 1853" d="M140.116-523.8a4.352,4.352,0,0,0,1.8,5.945c.09.09.27.09.36.18a4.848,4.848,0,0,0,1.982.36h.9a3.458,3.458,0,0,0,2.793-1.441.4.4,0,0,1,.45,0l.27.27a4.221,4.221,0,0,0,0,2.973l.36.721a3.278,3.278,0,0,0,1.261,1.441.315.315,0,0,1,.18.09c1.712.721,3.874-.27,4.955-2.342a2.72,2.72,0,0,0,.36-1.8,2.028,2.028,0,0,0-.9-1.441l-2.883-1.531a2.219,2.219,0,0,0-2.7.811c-.09-.09-.18-.09-.27-.18-.18-.09-.27-.18-.45-.18a3.412,3.412,0,0,0,0-1.351,2.621,2.621,0,0,0-1.261-1.531l-3.693-1.982A2.5,2.5,0,0,0,140.116-523.8Zm9.639,5.045a1.691,1.691,0,0,1,1.8-.991h.09l2.883,1.531a1.311,1.311,0,0,1,.54.811,1.563,1.563,0,0,1-.27,1.261c-.9,1.711-2.7,2.612-3.964,1.892a1.92,1.92,0,0,1-.9-.991l-.36-.721A2.85,2.85,0,0,1,149.755-518.756Zm-8.918-4.684a1.747,1.747,0,0,1,2.342-.721l3.693,1.982a1.507,1.507,0,0,1,.811.991,1.979,1.979,0,0,1-.09,1.261,2.96,2.96,0,0,1-2.522,1.531h-.9a3.165,3.165,0,0,1-1.8-.45A3.256,3.256,0,0,1,140.837-523.441Z" transform="translate(-13.843 -1.372)" fill="#fff"/>
    <path id="Caminho_1854" data-name="Caminho 1854" d="M71.742-391.652c4.684,9.549,107.828,4.054,105.666,22.34-.45,3.6-2.883,16.215-9.639,19.1-27.475,11.8-91.523,28.916-132.691,1.892C.4-371.113,22.738-471.195,42.015-491.643c19.278-20.539,41.348-2.973,36.3,23.6C73.814-444.53,64.536-406.155,71.742-391.652Z" transform="translate(-1.681 -3.802)" fill="#fff"/>
    <path id="Caminho_1855" data-name="Caminho 1855" d="M134.966-485.932s-.36,7.207-4.955,7.837c-4.594.54-6.936-9.278-3.423-10.179C130.012-489.175,132.624-491.067,134.966-485.932Z" transform="translate(-12.387 -4.919)" fill="#311d69"/>
    <path id="Caminho_1856" data-name="Caminho 1856" d="M131.066-495.021c-4.5-.811-5.315-5.4-7.026-7.207s-2.973-7.026-2.973-7.026-5.315,3.333-6.126,4.684c-.811,1.441.09,4.684,1.712,7.567s6.846,10.179,6.846,10.179,7.026-2.252,7.477-1.531c.45.811,3.513,2.973,3.513,2.973s3.243-8.378,0-14.5C134.58-499.8,132.057-494.841,131.066-495.021Z" transform="translate(-11.37 -2.947)" fill="#fff"/>
    <path id="Caminho_1857" data-name="Caminho 1857" d="M18.475-366.654s0,20.088,14.593,35.763c12.161,13.062,31.259,19.818,67.742,17.206s59.454-21.62,59.454-21.62S63.967-310.082,18.475-366.654Z" transform="translate(-1.832 -17.09)" fill="#311d69"/>
    <path id="Caminho_1858" data-name="Caminho 1858" d="M75.941-391.656c-7.207-14.5,2.162-52.878,6.576-76.48,3.874-20.539-8.468-35.673-23.241-31.979a276.736,276.736,0,0,1,7.207,47.563c1.892,31.349-10.54,41.888-2.342,58.283,5.585,11.26,25.583,10.089,37.564,8.2C87.741-387.242,77.292-388.774,75.941-391.656Z" transform="translate(-5.879 -3.798)" fill="#ffe1e1"/>
    <path id="Caminho_1859" data-name="Caminho 1859" d="M167.664-342.342c6.4-2.7,8.918-14.233,9.549-18.467a176.016,176.016,0,0,0-19.368,3.6c-16.125,3.783-23.782,12.972-52.878,14.233S51.278-341.261,37.5-362.16c-13.692-20.9-18.107-59-18.2-59.094-5.225,32.97-3.333,68.372,15.584,80.8C76.14-313.336,140.189-330.541,167.664-342.342Z" transform="translate(-1.665 -11.674)" fill="#ffe1e1"/>
    <path id="Caminho_1861" data-name="Caminho 1861" d="M53.406-285.8c-24.412-17.116-41.438-49.185-50.266-69.453-.09,2.252-.09,4.594-.09,6.936,0,0-9.459,62.967,5.5,80.083s98.55,68.372,113.683,62.607c7.116-2.7,19.368-18.287,30.268-34.051C127.544-248.6,80.071-267.154,53.406-285.8Z" transform="translate(-0.01 -18.22)" fill="#ffe1e1"/>
    <path id="Caminho_1862" data-name="Caminho 1862" d="M222.419-217.854a49.33,49.33,0,0,1-16.935,19.908c-27.655,19.728-44.861,30-51.707,64.319-5.135,25.583-18.377,60.265-23.6,78.822,16.665,1.892,37.294-1.712,40.357-11.26,9.008-27.745,44.771-115.305,47.744-128.277A161.8,161.8,0,0,0,222.419-217.854Z" transform="translate(-12.911 -31.847)" fill="#2e87be"/>
    <path id="Caminho_578" data-name="Caminho 578" d="M16.8,0h61.8a2.37,2.37,0,0,1,2.432,2.883L67.6,88.281a3.539,3.539,0,0,1-3.333,2.883H2.474A2.37,2.37,0,0,1,.041,88.281l13.422-85.4A3.635,3.635,0,0,1,16.8,0Z" transform="matrix(0.999, -0.035, 0.035, 0.999, 164.798, -435.179)" fill="#311d69"/>
    <path id="Caminho_579" data-name="Caminho 579" d="M16.8,0h61.8a2.37,2.37,0,0,1,2.432,2.883L67.6,88.281a3.539,3.539,0,0,1-3.333,2.883H2.474A2.37,2.37,0,0,1,.041,88.281l13.422-85.4A3.552,3.552,0,0,1,16.8,0Z" transform="matrix(0.999, -0.035, 0.035, 0.999, 166.419, -435.236)" fill="#614bd4"/>
    <path id="Caminho_580" data-name="Caminho 580" d="M.595,8.1A5.872,5.872,0,0,1,2.4.8,4.118,4.118,0,0,1,8.612,2.425a5.872,5.872,0,0,1-1.8,7.3A4.015,4.015,0,0,1,.595,8.1Z" transform="matrix(0.999, -0.035, 0.035, 0.999, 207.472, -413.046)" fill="#988cff"/>
    <path id="Caminho_1860" data-name="Caminho 1860" d="M178.688-362.289s8.288-11.08,9.278-14.053-.721-7.927,2.883-5.675.09,8.918,0,11.08,11.17-1.531,13.422-3.874c2.252-2.432,4.144-6.936,5.675-3.874,1.531,2.973-1.171,11.08-.631,12.7.45,1.712-5.855,12.7-12.161,14.323-6.216,1.621-15.584,4.594-17.746,0C177.067-356.253,177.967-361.388,178.688-362.289Z" transform="translate(-17.644 -15.509)" fill="#e7738e"/>
  </g>
</svg>
