<svg xmlns="http://www.w3.org/2000/svg" xmlns:xlink="http://www.w3.org/1999/xlink" width="458.3" height="231.883" viewBox="0 0 458.3 231.883">
  <defs>
    <clipPath id="clip-path">
      <path id="Caminho_1970" data-name="Caminho 1970" d="M127-454.3l57.739,169.752h41.535L162.288-454.3Z" transform="translate(-127 454.3)" fill="none"/>
    </clipPath>
    <linearGradient id="linear-gradient" x1="-0.161" y1="0.726" x2="0.303" y2="0.726" gradientUnits="objectBoundingBox">
      <stop offset="0" stop-color="#fff"/>
      <stop offset="0.1" stop-color="#d5d5d5"/>
      <stop offset="0.2" stop-color="#aeaeae"/>
      <stop offset="0.3" stop-color="#8b8b8b"/>
      <stop offset="0.4" stop-color="#6b6b6b"/>
      <stop offset="0.5" stop-color="#4e4e4e"/>
      <stop offset="0.6" stop-color="#363636"/>
      <stop offset="0.7" stop-color="#212121"/>
      <stop offset="0.8" stop-color="#101010"/>
      <stop offset="0.9" stop-color="#040404"/>
      <stop offset="1"/>
    </linearGradient>
    <clipPath id="clip-path-2">
      <path id="Caminho_1972" data-name="Caminho 1972" d="M252.6-454.3l57.739,169.752h30.7L277.1-454.3Z" transform="translate(-252.6 454.3)" fill="none"/>
    </clipPath>
    <linearGradient id="linear-gradient-2" x1="-0.122" y1="0.615" x2="0.337" y2="0.615" xlink:href="#linear-gradient"/>
    <clipPath id="clip-path-3">
      <path id="Caminho_1973" data-name="Caminho 1973" d="M303.1-454.3a1.646,1.646,0,0,1,1.659,1.659v168.092H20.8V-452.641a1.646,1.646,0,0,1,1.659-1.659Z" transform="translate(-20.8 454.3)" fill="#614bd4"/>
    </clipPath>
  </defs>
  <g id="Grupo_1313" data-name="Grupo 1313" transform="translate(0 475.1)">
    <path id="Caminho_1960" data-name="Caminho 1960" d="M304.313-285.044H0V-463.289A11.821,11.821,0,0,1,11.811-475.1H292.4a11.821,11.821,0,0,1,11.811,11.811v178.244Z" transform="translate(0 0)" fill="#ffd8d6"/>
    <path id="Caminho_1961" data-name="Caminho 1961" d="M311.7-467.45a2.062,2.062,0,0,1-2.05,2.05,2.062,2.062,0,0,1-2.05-2.05,2.062,2.062,0,0,1,2.05-2.05A2.062,2.062,0,0,1,311.7-467.45Z" transform="translate(-157.469 -2.867)" fill="#1d1240"/>
    <path id="Caminho_1962" data-name="Caminho 1962" d="M303.1-454.3a1.646,1.646,0,0,1,1.659,1.659v168.092H20.8V-452.641a1.646,1.646,0,0,1,1.659-1.659Z" transform="translate(-10.648 -10.648)" fill="#614bd4"/>
    <path id="Caminho_1963" data-name="Caminho 1963" d="M153.987-52.069,0-85.6v4.734a6.523,6.523,0,0,0,6.345,6.491L152.279-44.163a16.687,16.687,0,0,0,3.465.342H450.052a8.269,8.269,0,0,0,8.248-8.248Z" transform="translate(0 -199.396)" fill="#fcc"/>
    <path id="Caminho_1964" data-name="Caminho 1964" d="M0-85.7,153.987-52.121H458.3L304.313-85.7Z" transform="translate(0 -199.345)" fill="#fff"/>
    <path id="Caminho_1965" data-name="Caminho 1965" d="M173.153-65.511H412.26L400.107-68H161Z" transform="translate(-82.42 -208.406)" fill="#fcc"/>
    <path id="Caminho_1966" data-name="Caminho 1966" d="M435.758-60.7H196.7l12.1,2.489H447.911Z" transform="translate(-100.696 -212.143)" fill="#fcc"/>
    <path id="Caminho_1967" data-name="Caminho 1967" d="M377.43-72.657,366.107-75H127l11.372,2.343Z" transform="translate(-65.015 -204.822)" fill="#fcc"/>
    <path id="Caminho_1968" data-name="Caminho 1968" d="M232.3-53.3l11.372,2.343H482.73L471.358-53.3Z" transform="translate(-118.921 -215.931)" fill="#fcc"/>
    <g id="Grupo_1307" data-name="Grupo 1307" transform="translate(61.985 -464.948)" opacity="0.1" clip-path="url(#clip-path)">
      <g id="Grupo_1306" data-name="Grupo 1306" transform="matrix(0.189, 0.982, -0.982, 0.189, 379.96, -95.17)">
        <path id="Caminho_1969" data-name="Caminho 1969" d="M0,450.048,86.577,0,314.285,43.8,227.708,493.853Z" transform="translate(0 0)" fill="url(#linear-gradient)"/>
      </g>
    </g>
    <g id="Grupo_1309" data-name="Grupo 1309" transform="translate(123.287 -464.948)" opacity="0.2" clip-path="url(#clip-path-2)">
      <g id="Grupo_1308" data-name="Grupo 1308" transform="translate(318.658 -95.17) rotate(79.111)">
        <path id="Caminho_1971" data-name="Caminho 1971" d="M0,450.048,86.577,0,314.285,43.8,227.708,493.853Z" transform="translate(0 0)" fill="url(#linear-gradient-2)"/>
      </g>
    </g>
    <g id="Grupo_de_máscara_296" data-name="Grupo de máscara 296" transform="translate(10.152 -464.948)" clip-path="url(#clip-path-3)">
      <g id="Grupo_1311" data-name="Grupo 1311" transform="translate(73.934 31.856)">
        <path id="Caminho_589" data-name="Caminho 589" d="M189.563-526.524c14.7,34.569-51.1,62.016-60.382,58.356-5.228-2.026-12.482-26.2-8.757-29.341,11.959-9.933,39.536-13.07,38.033-16.664-1.9-4.378-47.051,3.856-45.483-12.351S182.31-543.58,189.563-526.524Z" transform="translate(-39.134 539)" fill="#63cbeb"/>
        <path id="Caminho_590" data-name="Caminho 590" d="M134.438-39.309s-1.046,10.652.588,13.462a5.3,5.3,0,0,1-4.052,1.9A56.729,56.729,0,0,1,120-24.933c.98-4.182.98-11.7,1.111-14.05Z" transform="translate(-41.58 365.849)" fill="#fff"/>
        <path id="Caminho_591" data-name="Caminho 591" d="M131.327-5.745a121.271,121.271,0,0,0,19.409-1.046,5.1,5.1,0,0,1,.2,1.438c.131,2.614-26.335,3.856-30.975,1.5-1.242-.588-1.83-1.96-1.96-3.66A75.183,75.183,0,0,0,131.327-5.745Z" transform="translate(-40.887 354.83)" fill="#fff"/>
        <path id="Caminho_592" data-name="Caminho 592" d="M131.347-9.626a81.627,81.627,0,0,1-13.266-1.7,12.411,12.411,0,0,1,.85-5.163c.131-.392.261-.85.392-1.307a57.139,57.139,0,0,0,10.979.98,5.3,5.3,0,0,0,4.052-1.9c.065.065.065.131.131.2.784,1.111,2.875,1.83,5.816,2.941,4.248,1.9,9.345.588,10.456,4.966A131.455,131.455,0,0,1,131.347-9.626Z" transform="translate(-40.907 358.711)" fill="#1d1240"/>
        <path id="Caminho_593" data-name="Caminho 593" d="M143.935-467.609,137.6-443.5c.065,0,.065.065.131.065,2.287.915,8.1-.131,15.292-2.679C148.967-456.892,143.935-467.609,143.935-467.609Z" transform="translate(-47.679 514.262)" fill="#2e87be"/>
        <path id="Caminho_594" data-name="Caminho 594" d="M25.538-39.309s-1.046,10.652.588,13.462a5.3,5.3,0,0,1-4.052,1.9,56.729,56.729,0,0,1-10.979-.98c.98-4.182.98-11.7,1.111-14.05Z" transform="translate(-3.845 365.849)" fill="#fff"/>
        <path id="Caminho_595" data-name="Caminho 595" d="M22.427-5.745A121.271,121.271,0,0,0,41.836-6.791a5.1,5.1,0,0,1,.2,1.438C42.163-2.739,15.7-1.5,11.057-3.85c-1.242-.588-1.83-1.96-1.96-3.66A76.044,76.044,0,0,0,22.427-5.745Z" transform="translate(-3.152 354.83)" fill="#fff"/>
        <path id="Caminho_596" data-name="Caminho 596" d="M22.447-9.626a81.627,81.627,0,0,1-13.266-1.7,12.412,12.412,0,0,1,.85-5.163c.131-.392.261-.85.392-1.307a57.139,57.139,0,0,0,10.979.98,5.3,5.3,0,0,0,4.052-1.9c.065.065.065.131.131.2.784,1.111,2.875,1.83,5.816,2.941,4.248,1.9,9.345.588,10.456,4.966A130.917,130.917,0,0,1,22.447-9.626Z" transform="translate(-3.172 358.711)" fill="#1d1240"/>
        <path id="Caminho_597" data-name="Caminho 597" d="M19.959-269.976s-5.032-32.544,2.156-43.457c5.163-7.776,31.759-4.444,44.045,4.052l29.145-2.745s11.828,40.581,13.527,72.014S105.761-126.34,97.985-124.641c-7.842,1.7-18.494,2.875-24.571-2.091-2.941-2.353,2.418-84.5,1.764-99.722-.2-4.64-4.117-29.145-9.737-46.267C56.031-224.1,39.629-128.366,37.8-125.752c-2.483,3.594-22.872,3.79-27.838,1.111C4.994-127.255,19.959-269.976,19.959-269.976Z" transform="translate(-3.102 462.356)" fill="#614bd4"/>
        <path id="Caminho_598" data-name="Caminho 598" d="M131.717-121.524c7.842-1.7,12.547-84.038,10.848-115.471s-13.527-72.014-13.527-72.014l-15.03,1.372c.784,22.414,2.679,54.435,7.123,71.361,7.254,27.773-1.9,84.561-3.856,91.357-1.046,3.79-6.47,9.541-10.979,13.854.065,4.313.327,6.992.85,7.384C113.223-118.714,123.875-119.825,131.717-121.524Z" transform="translate(-36.833 459.304)" fill="#311d69"/>
        <path id="Caminho_599" data-name="Caminho 599" d="M25.612-466.419c7.188-10,18.624-16.664,37.445-17.121,19.016-.457,31.367-.784,35.419,3.856,8.365,9.606,1.307,73.256,2.026,85.672,1.634,27.512,4.9,31.955-23.656,35.288-24.244,2.81-56.265,26.27-59.271,13.4C13.327-363.364,9.733-444.331,25.612-466.419Z" transform="translate(-4.834 519.868)" fill="#63cbeb"/>
        <path id="Caminho_600" data-name="Caminho 600" d="M131.489-393.922c-.719-12.416,6.339-76.131-2.026-85.672-3.137-3.529-11.044-4.182-23.068-4.117,1.372,13.985,4.705,49.338,3.2,61.428-1.7,13.462-6.6,50.253-6.4,64.434,1.568-.327,3.137-.588,4.64-.784C136.325-361.967,133.123-366.476,131.489-393.922Z" transform="translate(-35.756 519.843)" fill="#63cbeb"/>
        <path id="Caminho_601" data-name="Caminho 601" d="M101.832-509.877s5.489-.654,1.568-5.228c-3.725-4.444-17.709,3.4-17.905,8.626-.131,5.228,6.6,6.992,8.691,5.685C96.408-502.166,101.832-509.877,101.832-509.877Z" transform="translate(-29.625 531.175)" fill="#311d69"/>
        <path id="Caminho_602" data-name="Caminho 602" d="M85.378-498.909,79.5-482.245c-.065,2.418,12.939,9.41,16.794,6.4,1.111-.85.85-3.2-.131-5.751l-6.077-13.854Z" transform="translate(-27.547 525.108)" fill="#e7738e"/>
        <path id="Caminho_603" data-name="Caminho 603" d="M94.235-490c-2.679-.523-6.339-1.307-6.339-1.307a11.548,11.548,0,0,0,3.856,7.58,11.021,11.021,0,0,0,6.4,2.81Z" transform="translate(-30.457 522.474)" fill="#311d69"/>
        <path id="Caminho_604" data-name="Caminho 604" d="M98.409-470.3a3.413,3.413,0,0,0,3.463-2.745c.588-3.921,1.111-10.717-2.679-11.567-5.359-1.242-14.769-1.96-20.65-4.444-5.947-2.483-5.947,5.685-5.947,11.109s2.222,6.8,14.507,7.711A89.09,89.09,0,0,0,98.409-470.3Z" transform="translate(-25.156 521.851)" fill="#4bb4d4"/>
        <path id="Caminho_605" data-name="Caminho 605" d="M106.452-465.839s2.156,37.249,1.111,46.724L93.84-420.879s-1.634-42.477.2-44.568C95.866-467.473,106.452-465.839,106.452-465.839Z" transform="translate(-32.284 513.864)" fill="#2e87be"/>
        <path id="Caminho_606" data-name="Caminho 606" d="M106.531-465.831s.131,1.764.261,4.574l-13.4,3.071c.131-3.921.327-6.731.784-7.188C95.945-467.465,106.531-465.831,106.531-465.831Z" transform="translate(-32.363 513.856)" fill="#1d1240"/>
        <path id="Caminho_607" data-name="Caminho 607" d="M87.1-470.1c-12.22-.98-14.507-2.287-14.507-7.711,0-5.228.065-12.874,5.293-11.305.065.85.131,1.9.261,3.006.327,3.071.588,7.188,6.731,8.691,4.836,1.176,13.919.784,17.448.588a31.753,31.753,0,0,1-.392,3.921,3.413,3.413,0,0,1-3.463,2.745C95.86-470.168,91.743-469.776,87.1-470.1Z" transform="translate(-25.156 521.787)" fill="#2e87be"/>
        <path id="Caminho_608" data-name="Caminho 608" d="M92.15-510.432l-3.921,9.345a6.183,6.183,0,0,0,3.79,7.776,17.009,17.009,0,0,0,7.515.915c2.745-.131,4.378-2.614,4.705-6.208A33.219,33.219,0,0,0,103-509.974C101.43-515.333,95.156-516.313,92.15-510.432Z" transform="translate(-30.464 530.488)" fill="#e7738e"/>
        <path id="Caminho_609" data-name="Caminho 609" d="M91.714-503.7c-.261-.588-.457-1.176-.653-1.764-.327-1.176-1.046-2.81-2.549-1.5-2.157,1.9-.2,7.973,2.81,7.646C93.544-499.515,92.433-502.325,91.714-503.7Z" transform="translate(-30.355 528.066)" fill="#e7738e"/>
        <path id="Caminho_610" data-name="Caminho 610" d="M103-492.94a41.468,41.468,0,0,1,5.489,0C108.485-493.006,106.459-495.162,103-492.94Z" transform="translate(-35.69 523.387)" fill="#fff"/>
        <path id="Caminho_611" data-name="Caminho 611" d="M100.645-488.95c-3.006-.849-5.75,3.594-10.848-1.242-.98-.915-1.307-2.941-1.5-4.117l-.065.2a6.183,6.183,0,0,0,3.79,7.777,17.01,17.01,0,0,0,7.515.915,4.259,4.259,0,0,0,3.725-2.614C102.671-487.97,101.56-488.689,100.645-488.95Z" transform="translate(-30.464 523.514)" fill="#ac253c"/>
        <path id="Caminho_612" data-name="Caminho 612" d="M83.623-519.655c-1.83,1.7-6.273,6.469-1.764,9.933s12.351-4.64,15.618-4.378,5.685.392,7.123-1.83-2.679-8.3-10.129-7.515C87.086-522.661,85.452-521.42,83.623-519.655Z" transform="translate(-27.687 533.634)" fill="#ac253c"/>
        <path id="Caminho_613" data-name="Caminho 613" d="M91.5-523.837l.392,2.091c.131.654,1.9.915,3.986.523s3.659-1.242,3.529-1.9l-.392-2.091Z" transform="translate(-31.705 534.221)" fill="#ffb8b8"/>
        <path id="Caminho_614" data-name="Caminho 614" d="M99.007-525.669c.131.654-1.438,1.5-3.529,1.9s-3.856.2-3.986-.523c-.131-.654,1.438-1.5,3.529-1.9C97.112-526.518,98.942-526.322,99.007-525.669Z" transform="translate(-31.701 534.615)" fill="#fcc"/>
        <path id="Caminho_615" data-name="Caminho 615" d="M104.624-514.616c.784-1.176-.065-3.464-2.156-5.293-.261.98.131,3.594-.457,4.052-.85.588-1.96-.457-3.137-.915-1.242-.457-1.764,1.307-2.026,2.091s-2.222.588-3.529.654-2.875,1.7-4.444,2.222c-1.634.523-1.046-.131-1.83-1.046-.719-.915-1.7,1.9-3.856,1.568a5.638,5.638,0,0,1-3.071-1.9,4.235,4.235,0,0,0,1.764,4.64c4.444,3.529,12.351-4.64,15.618-4.378C100.7-512.59,103.121-512.459,104.624-514.616Z" transform="translate(-27.711 532.384)" fill="#812b3f"/>
        <path id="Caminho_616" data-name="Caminho 616" d="M55.522-434.609s1.96,20-1.242,53.978S40.3-314.172,40.3-314.172,48.4-426.7,55.522-434.609Z" transform="translate(-13.963 502.827)" fill="#311d69"/>
        <path id="Caminho_617" data-name="Caminho 617" d="M115.762-520.032a6.713,6.713,0,0,0-.98-4.313c-.98-1.568-2.549-3.725-3.79-4.182-1.9-.719-6.731-.392-6.208.2.523.654,3.4.915,3.4.915s-3.333.915-4.378,1.83.392,2.81,1.5,3.333,6.927,4.509,9.018,4.248C115.24-518.136,115.632-519.051,115.762-520.032Z" transform="translate(-35.844 535.513)" fill="#e7738e"/>
        <path id="Caminho_618" data-name="Caminho 618" d="M35.613-463.666c-7.907-4.64-21.369,6.143-26.793,31.5C3.461-406.812-5.688-299.51,4.833-298.073s17.644-1.438,21.042-24.179C29.339-345.058,52.407-453.8,35.613-463.666Z" transform="translate(0 513.259)" fill="#63cbeb"/>
        <path id="Caminho_619" data-name="Caminho 619" d="M40.289-463.663a8.334,8.334,0,0,0-6.992-.523c-.457,14.05-1.96,55.285-4.966,67.178-3.529,14.05-14.769,84.822-14.834,99.2,8.365.065,14.115-4.705,17.121-24.506C34.016-345.055,57.084-453.8,40.289-463.663Z" transform="translate(-4.677 513.256)" fill="#4bb4d4"/>
        <path id="Caminho_620" data-name="Caminho 620" d="M8.412-219.816c-3.463,4.052-4.444,16.272-1.176,20.977s4.378,6.6,4.966,4.444-1.372-6.012-1.176-8.822c.261-2.81,1.83-2.483,2.222-1.7.392.85.653,4.574,2.287,4.509,1.568-.065.784-.588,1.438-4.248s1.438-11.7-1.7-14.442C12.072-221.907,9.85-221.515,8.412-219.816Z" transform="translate(-1.814 428.86)" fill="#e7738e"/>
        <path id="Caminho_650" data-name="Caminho 650" d="M124.494-490.55a.932.932,0,0,0-.784.392l-14.9-3.659a.429.429,0,0,0-.523.327.429.429,0,0,0,.327.523l14.9,3.659a.936.936,0,0,0,.98.784,1,1,0,0,0,.98-.98A1.02,1.02,0,0,0,124.494-490.55Z" transform="translate(-37.517 523.349)" fill="#fff"/>
        <path id="Caminho_651" data-name="Caminho 651" d="M132.784-488.109a.588.588,0,0,1,.588.588.589.589,0,0,1-.588.588.589.589,0,0,1-.588-.588A.589.589,0,0,1,132.784-488.109Z" transform="translate(-45.808 521.365)" fill="#ff6161" fill-rule="evenodd"/>
        <path id="Caminho_652" data-name="Caminho 652" d="M131.8-487.442h0l-2.287-.588c-.131,0-.2-.131-.131-.261,0-.131.131-.2.261-.131l2.287.588c.131,0,.2.131.131.261A.5.5,0,0,1,131.8-487.442Z" transform="translate(-44.824 521.483)" fill="#ff6161"/>
        <path id="Caminho_653" data-name="Caminho 653" d="M42.059-211.1c-2.483,24.571-5.685,43.391-10.783,59.794-3.137,10.064-14.115,23.787-22.088,32.87-.392,10.39-.261,17.187.784,17.709,4.966,2.679,25.355,2.483,27.838-1.111,1.83-2.614,18.232-98.415,27.642-146.969C65.388-248.809,44.542-235.674,42.059-211.1Z" transform="translate(-3.113 438.444)" fill="#311d69"/>
      </g>
    </g>
  </g>
</svg>
