<svg xmlns="http://www.w3.org/2000/svg" width="213.905" height="442.134" viewBox="0 0 213.905 442.134">
  <g id="Grupo_1315" data-name="Grupo 1315" transform="translate(0 564.6)">
    <path id="Caminho_1974" data-name="Caminho 1974" d="M113.173-19.119c2.663-3.915,3.367-8.3,3.681-11.9l13.234-.078s-.861,4.542,1.331,8.066c.94,1.566,3.837,2.663,7.753,4.307,6.186,3.132,13.861,7.2,14.1,9.319.47,3.524-36.022,3.524-42.052.157C108-10.9,110.2-14.734,113.173-19.119Z" transform="translate(-23.78 -115.72)" fill="#1d1240"/>
    <path id="Caminho_1975" data-name="Caminho 1975" d="M3.488-19.119c2.663-3.915,3.367-8.3,3.681-11.9L20.4-31.1s-.861,4.542,1.331,8.066c.94,1.566,3.837,2.663,7.753,4.307,6.186,3.132,13.861,7.2,14.1,9.319.47,3.524-36.022,3.524-42.052.157C-1.6-10.9.591-14.734,3.488-19.119Z" transform="translate(0 -115.72)" fill="#1d1240"/>
    <path id="Caminho_1976" data-name="Caminho 1976" d="M33.169-209.223c-.861-12.608-14.879-62.178-9.789-91.935,2.114-12.216,3.994-42.052,5.012-50.9.157-1.018.157-2.036.235-3.054,35,4.464,69.46-3.915,77.761-6.186a47.367,47.367,0,0,0,7.753,18.716c15.035,21.535,16.445,74.081,16.523,110.729.157,82.146-14.8,130.933-22.631,133.36-6.656,2.036-6.265,3.054-14.566,1.566-22.631-4.15-6.03-98.513-4.7-110.729,1.253-11.59-9.084-67.424-9.084-67.424C78.2-269.365,76.944-135.456,25.338-94.344c-5.09,3.994-20.6,2.976-19.891-5.012C7.954-128.409,33.874-199.2,33.169-209.223Z" transform="translate(-1.177 -44.097)" fill="#311d69"/>
    <path id="Caminho_1977" data-name="Caminho 1977" d="M76.679-248.122c-5.795-4.542-13.7,26.938-15.975,58.184S18.26-80.227,17.085-71.691a12.461,12.461,0,0,1-1.331,3.837c4.385.7,9.4-.078,11.825-2.036,42.13-33.516,50.666-128.9,53.25-165.937C79.968-241.7,78.637-246.634,76.679-248.122Z" transform="translate(-3.417 -68.551)" fill="#1d1240"/>
    <path id="Caminho_1978" data-name="Caminho 1978" d="M24.377-263.407C17.877-307.1,10.438-412.117,13.1-429.58c3.915-26.077,23.571-60.22,77.291-52.154,16.836,2.506,31.48,10.728,31.167,27.721-.313,16.523,10.65,107.91,11.9,144.246.626,17.071-17.071,25.372-43.383,33.673-1.958.626-2.349-16.993-4.385-16.367-1.566.47-4.7,19.186-6.343,19.656C55-265.443,24.925-259.57,24.377-263.407Z" transform="translate(-2.721 -17.713)" fill="#fff"/>
    <path id="Caminho_1979" data-name="Caminho 1979" d="M156.092-221.929c-.078-29.209-.94-68.286-8.927-93.971-6.735,7.753-11.746,23.258-10.337,40.408,2.506,29.992.392,75.568-5.717,92.483s-6.343,66.171-8.222,83.791a37.778,37.778,0,0,0,.783,12.921c3.681.235,4.777-.7,9.71-2.271C141.37-91,156.249-139.861,156.092-221.929Z" transform="translate(-26.604 -53.945)" fill="#1d1240"/>
    <path id="Caminho_1980" data-name="Caminho 1980" d="M152.443-309.615c-1.253-36.336-12.216-127.722-11.9-144.246.313-16.993-14.331-25.216-31.167-27.721-3.211-.47-6.343-.783-9.319-1.018,2.428,4.229,15.427,27.1,15.74,66.954.157,24.9-.548,70.087-1.1,89.586-.313,11.433,3.211,31.48,6.186,46.124C140.54-287.14,152.991-295.206,152.443-309.615Z" transform="translate(-21.702 -17.786)" fill="#ffe6e6"/>
    <path id="Caminho_1981" data-name="Caminho 1981" d="M77.389-480.894s-8.222,5.012-8.536,8.144c-.313,3.211,15.349,19.5,21.613,17.306,6.265-2.271,10.493-21.692,4.307-23.963S85.924-483.008,77.389-480.894Z" transform="translate(-14.934 -17.926)" fill="#311d69"/>
    <path id="Caminho_1982" data-name="Caminho 1982" d="M103.179-286.8h0a1.789,1.789,0,0,1-1.723-1.723c0-.783,1.018-80.737.235-90.76s-8.066-63.117-8.144-63.665a1.7,1.7,0,0,1,1.331-1.958,1.7,1.7,0,0,1,1.958,1.331c.392,2.193,7.439,53.877,8.222,64.057s-.078,87.863-.235,91.152A1.64,1.64,0,0,1,103.179-286.8Z" transform="translate(-20.286 -25.957)" fill="#ffe6e6"/>
    <path id="Caminho_1983" data-name="Caminho 1983" d="M89.306-507.811s3.6-6.108-1.958-8.927c-8.3-4.072-14.017,7.439-14.1,10.728-.157,4.933,4.072,11.668,4.072,11.668S89.7-502.173,89.306-507.811Z" transform="translate(-15.888 -10.195)" fill="#311d69"/>
    <path id="Caminho_1984" data-name="Caminho 1984" d="M78.664-494.8l-1.41,16.758c.548,2.193,13.7,5.325,16.445,1.723.783-1.018,0-3.054-1.488-5.09l-8.692-10.885Z" transform="translate(-16.757 -15.14)" fill="#ff6161"/>
    <path id="Caminho_1985" data-name="Caminho 1985" d="M85.806-488.9c-2.506.157-5.952.392-5.952.392a10.715,10.715,0,0,0,5.247,5.795,9.873,9.873,0,0,0,6.421.94Z" transform="translate(-17.321 -16.42)" fill="#311d69"/>
    <path id="Caminho_1986" data-name="Caminho 1986" d="M81.005-503.7l-1.253,9.24a5.772,5.772,0,0,0,5.168,6.03,15.889,15.889,0,0,0,6.891-.94c2.428-.783,3.289-3.367,2.663-6.656a31.064,31.064,0,0,0-3.837-9.867C88.131-510.275,82.258-509.649,81.005-503.7Z" transform="translate(-17.297 -12.116)" fill="#ff6161"/>
    <path id="Caminho_1987" data-name="Caminho 1987" d="M89.654-495.319s4.464-1.1,5.012-.7C94.666-496.023,93.335-492.186,89.654-495.319Z" transform="translate(-19.447 -14.856)" fill="#fff"/>
    <path id="Caminho_1988" data-name="Caminho 1988" d="M92.047-488.9c-2.9-.078-4.229,4.542-9.945,1.488-1.1-.548-1.879-2.271-2.349-3.289v.235a5.772,5.772,0,0,0,5.168,6.03,15.889,15.889,0,0,0,6.891-.94,4.131,4.131,0,0,0,2.741-3.211A19.626,19.626,0,0,1,92.047-488.9Z" transform="translate(-17.297 -16.029)" fill="#ac253c"/>
    <path id="Caminho_1989" data-name="Caminho 1989" d="M81.4-498.793a6.5,6.5,0,0,1-.47-1.645c-.235-1.1-.7-2.663-2.193-1.566-2.114,1.566-1.175,6.813,1.566,6.813C82.336-495.269,81.945-497.461,81.4-498.793Z" transform="translate(-16.827 -13.497)" fill="#ff6161"/>
    <path id="Caminho_1990" data-name="Caminho 1990" d="M82.542-501.055a3.241,3.241,0,0,0,3.837,2.663c.078,0,.235-.078.313-.078a4.353,4.353,0,0,0,1.331-.7l.548-.47a2.913,2.913,0,0,0,1.018-2.193.42.42,0,0,1,.313-.235.471.471,0,0,1,.313.078,2.859,2.859,0,0,0,1.41,1.723l.548.235a2.26,2.26,0,0,0,1.41.235c.078,0,.157,0,.157-.078a3.2,3.2,0,0,0,1.879-3.681,2.387,2.387,0,0,0-.626-1.253,1.521,1.521,0,0,0-1.253-.392l-2.428.392a1.748,1.748,0,0,0-1.253,1.8h-.235a.471.471,0,0,0-.313.078,2.132,2.132,0,0,0-.626-.783,1.931,1.931,0,0,0-1.488-.313l-3.132.548A2.159,2.159,0,0,0,82.542-501.055Zm8.066-1.488c-.157-.7.157-1.331.626-1.41h.078l2.428-.392c.235-.078.47.078.7.235a1.867,1.867,0,0,1,.47.861c.235,1.488-.392,2.819-1.488,2.976a1.493,1.493,0,0,1-1.018-.157l-.548-.235A2.91,2.91,0,0,1,90.608-502.543Zm-7.439,1.41a1.217,1.217,0,0,1,1.018-1.488l3.132-.548a1.029,1.029,0,0,1,.94.235,1.284,1.284,0,0,1,.548.861,2.229,2.229,0,0,1-.783,2.114l-.548.47a2.713,2.713,0,0,1-1.253.626A2.833,2.833,0,0,1,83.168-501.133Z" transform="translate(-17.894 -12.879)" fill="#311d69"/>
    <path id="Caminho_1991" data-name="Caminho 1991" d="M207.113-432.7h-5.795c-10.572,0-19.264,7.6-19.264,16.758,0,9.24,8.692,16.758,19.264,16.758h5.795c10.572,0,19.264-7.6,19.264-16.758C226.377-425.182,217.763-432.7,207.113-432.7Z" transform="translate(-39.489 -28.61)" fill="#1d1240"/>
    <path id="Caminho_1992" data-name="Caminho 1992" d="M204.885-564.6H177.869v13.156c-10.337,11.355-16.915,29.053-16.915,49.022,0,19.891,6.656,37.667,16.915,49.022v13.156h27.017c24.276,0,43.931-27.8,43.931-62.1C248.9-536.8,229.161-564.6,204.885-564.6Z" transform="translate(-34.912 0)" fill="#1d1240"/>
    <path id="Caminho_1993" data-name="Caminho 1993" d="M170.385-564.6c24.247,0,43.932,27.826,43.932,62.1s-19.685,62.1-43.932,62.1-43.931-27.826-43.931-62.1S146.139-564.6,170.385-564.6Z" transform="translate(-27.429 0)" fill="#fff" fill-rule="evenodd"/>
    <path id="Caminho_1994" data-name="Caminho 1994" d="M170.385-558.962c9.867,0,19.264,5.638,26.469,15.818,7.6,10.807,11.825,25.216,11.825,40.643s-4.229,29.836-11.825,40.642c-7.2,10.18-16.6,15.818-26.469,15.818s-19.264-5.638-26.469-15.818c-7.6-10.807-11.825-25.216-11.825-40.642s4.229-29.836,11.825-40.643C151.121-553.323,160.519-558.962,170.385-558.962Zm0-5.638c-24.276,0-43.931,27.8-43.931,62.1s19.656,62.1,43.931,62.1,43.932-27.8,43.932-62.1S194.661-564.6,170.385-564.6Z" transform="translate(-27.429 0)" fill="#311d69"/>
    <path id="Caminho_1995" data-name="Caminho 1995" d="M178.944-497.006l8.927-40.094-3.289,40.956a2.814,2.814,0,0,1-3.054,2.584,2.814,2.814,0,0,1-2.584-3.054C178.866-496.692,178.944-496.849,178.944-497.006Z" transform="translate(-38.807 -5.965)" fill="#1d1240"/>
    <path id="Caminho_1996" data-name="Caminho 1996" d="M103.1-312.059c-23.414,9.945-38.293,5.795-52.545-3.289,0,0,6.97,25.92,33.125,28.974,21.692,2.584,47.22-21.143,55.443-29.366-.548-6.578-1.175-13.391-1.879-20.36A98.151,98.151,0,0,1,103.1-312.059Z" transform="translate(-10.966 -49.563)" fill="#311d69"/>
    <path id="Caminho_1997" data-name="Caminho 1997" d="M62.544-432.7s11.2,14.8,16.993,30.932c5.717,16.053,16.915,42.052,16.915,42.052s-6.265,4.464-9.162,2.819C84.235-358.541,61.447-417.038,62.544-432.7Z" transform="translate(-13.558 -28.61)" fill="#311d69"/>
    <path id="Caminho_1998" data-name="Caminho 1998" d="M38.592-447.94c22.71-4.229,35.787,84.887,43.54,84.887,9.084,0,39.859-51.606,61.786-63.9,3.759-2.114,10.728,1.018,13.548,1.958,18.873,6.5-33.595,111.591-84.261,106.187C27.864-323.585,7.269-442.067,38.592-447.94Z" transform="translate(-5.112 -25.273)" fill="#fff"/>
    <path id="Caminho_1999" data-name="Caminho 1999" d="M38.592-447.94c22.71-4.229,35.787,84.887,43.54,84.887,9.084,0,39.859-51.606,61.786-63.9,3.759-2.114,10.728,1.018,13.548,1.958,18.873,6.5-33.595,111.591-84.261,106.187C27.864-323.585,7.269-442.067,38.592-447.94Z" transform="translate(-5.112 -25.273)" fill="#fff"/>
    <path id="Caminho_2000" data-name="Caminho 2000" d="M160.281-417.9c-12.921,10.415-25.372,43.07-36.1,59.437-11.825,18.011-19.656,32.107-34.378,32.42S72.732-335.6,60.829-344.054c-8.222-5.795-21.222-15.505-28.974-21.535,8.066,26.938,23.258,51.214,43.227,53.329C124.729-306.857,176.178-408.033,160.281-417.9Z" transform="translate(-6.909 -31.82)" fill="#ffe6e6"/>
    <path id="Caminho_2001" data-name="Caminho 2001" d="M184.162-425.406c2.9-3.681,7.988-4.307,13.626-9.084,2.193-1.8,3.211,0-.392,4.7-.94,1.253-2.584,2.271-2.193,2.976.783,1.331,3.211.7,13-3.681,2.663-1.175,3.054,1.879,3.132,3.524a7.156,7.156,0,0,1-2.271,5.482c-4.307,4.307-17.62,10.572-22.553,7.988a7.852,7.852,0,0,1-2.819-2.428A8.114,8.114,0,0,1,184.162-425.406Z" transform="translate(-39.561 -28.073)" fill="#ff6161"/>
    <path id="Caminho_2002" data-name="Caminho 2002" d="M86.207-362.955c-7.674,0-20.83-89.194-43.54-84.887-.078,0-.157.078-.313.078a77.647,77.647,0,0,1,11.981,23.414c5.09,16.523,9.162,41.112,17.15,48.63C79.629-368.28,80.569-359.587,86.207-362.955Z" transform="translate(-9.187 -25.293)" fill="#ffe6e6"/>
  </g>
</svg>
