<svg xmlns="http://www.w3.org/2000/svg" xmlns:xlink="http://www.w3.org/1999/xlink" width="196" height="218.903" viewBox="0 0 196 218.903">
  <defs>
    <clipPath id="clip-path">
      <circle id="Elipse_204" data-name="Elipse 204" cx="98" cy="98" r="98" transform="translate(-16474 12161)" fill="#fff"/>
    </clipPath>
  </defs>
  <g id="Grupo_1333" data-name="Grupo 1333" transform="translate(16474 -12161)">
    <g id="Grupo_de_máscara_294" data-name="Grupo de máscara 294" clip-path="url(#clip-path)">
      <g id="Grupo_1319" data-name="Grupo 1319" transform="translate(-16535.402 12754.291)">
        <path id="Caminho_2003" data-name="Caminho 2003" d="M169.723-30.123c4.891-.091,10.054-2.446,10.6,2.446,0,.272-.725,6.431-.725,6.521.272.453,6.25,2.264,10.959,4.529,2.083,1.721,4.257,4.076,1.993,4.8-3.8,1.359-26.448,1.993-28.622-1.721a9.6,9.6,0,0,0-2.717-2.989,29.7,29.7,0,0,0,4.166-10.054A4.545,4.545,0,0,1,169.723-30.123Z" transform="translate(-15.195 -48.472)" fill="#ff6161"/>
        <path id="Caminho_2004" data-name="Caminho 2004" d="M163.438-12.076C165.7-8.363,188.255-9,192.059-10.355c2.264-.815.091-3.08-1.993-4.8,7.065,3.351,15.851,7.789,16.213,10.144.634,3.985-40.487,4.982-47.461,1.268-3.623-1.9-1.268-6.34,1.9-11.231A7.657,7.657,0,0,1,163.438-12.076Z" transform="translate(-14.797 -49.943)" fill="#29204e"/>
        <path id="Caminho_2005" data-name="Caminho 2005" d="M27.853-134.118c2.174,4.348,6.521,8.061,2.264,10.6-.181.091-6.159,1.993-6.159,2.083-.362.453.543,6.612.543,11.865-.725,2.717-1.9,5.525-3.532,3.8-2.808-2.9-12.952-23.1-10.6-26.629a10.133,10.133,0,0,0,1.54-3.714,30.59,30.59,0,0,0,10.869-.453A4.742,4.742,0,0,1,27.853-134.118Z" transform="translate(-0.945 -38.493)" fill="#ff6161"/>
        <path id="Caminho_2006" data-name="Caminho 2006" d="M9.428-132.394c-2.355,3.532,7.7,23.821,10.6,26.629,1.63,1.721,2.808-1.177,3.532-3.8-.091,7.88-.362,17.662-2.355,18.93-3.351,2.264-21.647-34.6-21.194-42.48.181-4.076,5.163-3.8,11.05-2.989A10.361,10.361,0,0,1,9.428-132.394Z" transform="translate(0 -38.496)" fill="#29204e"/>
        <path id="Caminho_2007" data-name="Caminho 2007" d="M194.1-494.656l48.367,44.834s40.849-46.646,56.971-38.856c12.5,6.068,19.021,51.446-25.451,85.23s-64.308-28.712-72.912-45.831C192.466-466.487,194.1-494.656,194.1-494.656Z" transform="translate(-18.283 -4.747)" fill="#e5f9ff"/>
        <path id="Caminho_2008" data-name="Caminho 2008" d="M245.688-391.69c-5.525-8.967-13.314-21.919-18.749-32.063-9.239-17.028-13.948-46.1-13.948-46.1l-9.782,25.723C210.093-429.188,222.682-395.585,245.688-391.69Z" transform="translate(-19.154 -7.085)" fill="#311d69"/>
        <path id="Caminho_2009" data-name="Caminho 2009" d="M102.347-214.017C109.23-216.1,98.9-319.808,99-328.594c.362-28.621,15.4-47.37,25.18-59.236.725-.906,1.449-1.721,2.174-2.627,39.581,14.945,63.311,8.333,74.633,2.355,11.322,43.113,23.459,94.2,23.549,95.737,2.174,64.761-.091,150.082-55.069,230.965-2.9,4.257-33.422,0-33.422,0-.272-6.7,11.322-102.621,32.154-136.586,7.608-12.409,2.083-85.049-.634-83.6-5.706,3.08.091,54.163-27.172,93.563-17.571,25.361-48.91,47.642-102.53,54.526a8.948,8.948,0,0,1-9.329-5.253L19.109-160.4C19.109-160.488,60.864-201.337,102.347-214.017Z" transform="translate(-1.801 -14.569)" fill="#4bb4d4"/>
        <path id="Caminho_2010" data-name="Caminho 2010" d="M141-176.419c23.1-33.422,22.462-75.086,25.18-89.035-4.257-3.442-10.778-3.261-14.492,9.51-5.344,18.387-11.322,32.063-23.1,57.786-11.684,25.723-68.474,50.812-84.234,55.432a96.607,96.607,0,0,0-18.749,7.7l3.351,7.789a8.816,8.816,0,0,0,9.329,5.253C92.091-128.777,123.429-151.059,141-176.419Z" transform="translate(-2.414 -26.172)" fill="#2e87be"/>
        <path id="Caminho_2011" data-name="Caminho 2011" d="M238.6-288.046c0-1-5.887-25.723-13.133-55.16-25.27-8.876-14.4,26.176-14.4,26.176s7.337,76.807-3.351,119.649c-10.688,42.751-23.73,54.435-29.618,77.532-4.71,18.477-7.7,51.99-8.786,64.58,6.793.272,13.043,0,14.22-1.811C238.508-138.055,240.863-223.285,238.6-288.046Z" transform="translate(-15.958 -18.887)" fill="#2e87be"/>
        <path id="Caminho_2012" data-name="Caminho 2012" d="M169.234-544.69a22.809,22.809,0,0,0-14.582,2.355c-7.337,3.985-4.982,10.6-9.057,20.56s-17.662,19.745-16.394,30.8c1.268,11.141,41.211,17.571,49.635,12.137s11.322-28.531,8.7-38.856C184.994-528.115,175.846-542.064,169.234-544.69Z" transform="translate(-12.17)" fill="#1d1240"/>
        <path id="Caminho_2013" data-name="Caminho 2013" d="M151.494-229.227c-7.7-.453-27.172-5.978-38.585-9.329.362,6.974.543,13.586.634,19.292,16.122,3.261,54.345-8.876,54.345-8.876S162.725-228.593,151.494-229.227Z" transform="translate(-10.642 -28.886)" fill="#311d69"/>
        <path id="Caminho_2014" data-name="Caminho 2014" d="M197.609-228.817s5.253,7.246,24.183,5.525a63.744,63.744,0,0,0,19.564-4.619c.181-5.072.272-10.054.362-14.945C232.752-238.961,209.2-229.179,197.609-228.817Z" transform="translate(-18.626 -28.481)" fill="#311d69"/>
        <path id="Caminho_2015" data-name="Caminho 2015" d="M119.541-252.924c14.854,2.536,35.686,2.355,46.736.272,8.6-1.63,12.952-41.392,16.213-41.483,3.714-.181-4.982,37.951,5.706,41.211,15.307,4.619,33.241-2.536,39.4-5.616,11.865-6.068,9.51-20.56,8.876-32.788-3.714-71.01-13.767-85.23-26.9-116.3-8.333-19.745-2.446-69.742-10.688-80.521-3.895-5.072-10.869-9.51-18.024-9.51-24.093,0-43.657,8.061-52.171,18.387C112.295-459.434,99.252-335.075,95.9-283.176A28.523,28.523,0,0,0,119.541-252.924Z" transform="translate(-9.032 -4.464)" fill="#fff"/>
        <path id="Caminho_2016" data-name="Caminho 2016" d="M203.077-251.566c13.4,1.268,27.172-4.348,32.335-6.974,11.865-6.068,9.51-20.56,8.876-32.788-3.714-71.01-13.767-85.23-26.9-116.3-8.333-19.745-2.446-69.742-10.688-80.521-3.895-5.072-10.869-9.51-18.024-9.51-3.08,0-6.068.091-8.967.362a168.728,168.728,0,0,1,20.017,47.642c6.974,28.984,6.884,52.9,6.431,89.216C205.794-334.8,204.164-281.727,203.077-251.566Z" transform="translate(-16.939 -4.464)" fill="#e5f9ff"/>
        <path id="Caminho_2017" data-name="Caminho 2017" d="M158.3-490.772s13.224-3.8,18.387-2.9,14.492,17.843,15.851,30.071,2.445,26.719-4.438,24.274S142-480.084,158.3-490.772Z" transform="translate(-14.55 -4.827)" fill="#4bb4d4"/>
        <path id="Caminho_2018" data-name="Caminho 2018" d="M161.909-513.756l.181,20.56c.091,3.351,8.6,11.865,13.858,7.518,1.54-1.268-.634-5.887-2.174-9.42l-4.438-17.571Z" transform="translate(-15.261 -2.947)" fill="#ff6161"/>
        <path id="Caminho_2019" data-name="Caminho 2019" d="M310.209-487.814c-.091-1.268,1.9-4.619,3.17-6.159,2.445-2.989,2.808-5.525,2.627-7.155s2.445-.181,2.355,2.174-1.9,6.159-.091,5.072,5.8-8.061,9.691-5.525c3.351,2.083-1.63,12.68-9.329,17.028C316.458-481.2,310.662-480.477,310.209-487.814Z" transform="translate(-29.239 -4.072)" fill="#ac253c"/>
        <path id="Caminho_2020" data-name="Caminho 2020" d="M172.076-501.8a11.883,11.883,0,0,1-8.967-8.152l6.974.272Z" transform="translate(-15.374 -3.305)" fill="#311d69"/>
        <path id="Caminho_2022" data-name="Caminho 2022" d="M161.785-528.25,160.7-520.28c-.815,6.25,3.351,12.409,9.6,13.4,5.8.906,11.231-2.536,11.956-9.873.634-6.521-4.076-11.956-5.8-14.854C172.473-538.213,163.687-537.217,161.785-528.25Z" transform="translate(-15.137 -0.861)" fill="#ff6161"/>
        <path id="Caminho_2023" data-name="Caminho 2023" d="M161.941-519.5a8.166,8.166,0,0,1-.543-1.993c-.272-1.268-.906-3.17-2.717-1.9-2.536,1.9-.906,8.876,2.446,8.786C163.571-514.7,162.575-517.874,161.941-519.5Z" transform="translate(-14.84 -1.999)" fill="#ff6161"/>
        <path id="Caminho_2024" data-name="Caminho 2024" d="M180.6-522.656a8.018,8.018,0,0,0,0-2.083c-.091-1.359,0-3.351,2.083-2.536,2.989,1.177,3.261,8.242,0,9.148C180.329-517.584,180.419-520.845,180.6-522.656Z" transform="translate(-17.015 -1.655)" fill="#ff6161"/>
        <path id="Caminho_2025" data-name="Caminho 2025" d="M178.227-512.68a23.069,23.069,0,0,0-7.518,1.178s.543-3.352,2.083-4.71C174.332-517.481,176.6-515.941,178.227-512.68Z" transform="translate(-16.09 -2.674)" fill="#fff"/>
        <path id="Caminho_2026" data-name="Caminho 2026" d="M171.157-507.557c2.355,0,6.521-1,8.242-2.536,1.54-1.359,2.808-4.438,3.08-5.163v.362c-.725,7.337-6.159,10.778-11.956,9.873a11.51,11.51,0,0,1-8.514-6.521A13.976,13.976,0,0,0,171.157-507.557Z" transform="translate(-15.27 -2.806)" fill="#ac253c"/>
        <path id="Caminho_2027" data-name="Caminho 2027" d="M223.041-356.663a38.319,38.319,0,0,0,6.974-3.442,198.155,198.155,0,0,0-7.518-20.47c-7.88,3.17-18.568,5.887-27.806,2.627-17.028-5.978-53.982-47.008-53.982-47.008S149.676-389,166.7-367.441C183.641-345.975,212.716-353.04,223.041-356.663Z" transform="translate(-13.263 -11.317)" fill="#311d69"/>
        <path id="Caminho_2028" data-name="Caminho 2028" d="M136.622-474.343c21.647-13.586,53.167,54.073,65.485,55.794,13.133,1.811,65.3-56.881,74.18-50.812,5.434,3.714,8.7,3.261,10.778,7.518,6.884,14.492-1.993,40.124-19.111,56.337-26.629,25.18-47.1,36.411-74.271,32.335C159.9-378.244,115.065-460.848,136.622-474.343Z" transform="translate(-12.346 -6.492)" fill="#fff"/>
        <path id="Caminho_2029" data-name="Caminho 2029" d="M273.935-411.686a73.628,73.628,0,0,0,11.956-20.651,47.784,47.784,0,0,0,3.351-20.47c-.272-3.261-1-7.065-2.9-9.873a1.9,1.9,0,0,1-.362-.543c-.091-.181-.272-.272-.362-.453-1.54-.725-2.264,1.449-2.627,2.445a66.365,66.365,0,0,0-1.811,8.423,108.407,108.407,0,0,1-2.264,10.778,45.656,45.656,0,0,1-3.895,9.51,126.792,126.792,0,0,1-13.224,19.2c-5.616,6.7-12.046,12.952-19.473,17.571a64.432,64.432,0,0,1-24.908,9.329c-8.786,1.177-17.843.181-25.723-3.985a61.768,61.768,0,0,1-16.847-13.767c-5.163-5.887-9.51-12.59-13.677-19.2-5.253-8.423-10.6-16.847-15.579-25.451-3.714-6.431-7.155-12.862-10.235-19.655-.453-1-.906-2.083-1.359-3.079-3.08,3.985-3.261,9.691-2.808,14.492a68.418,68.418,0,0,0,3.351,14.764c1,3.08,2.174,6.068,3.442,8.967a155.071,155.071,0,0,0,17.028,29.618c6.612,9.057,14.311,17.843,23.549,24.183,4.529,3.08,9.6,5.8,15.035,6.612a68.579,68.579,0,0,0,17.753.453c11.775-1.359,22.644-6.34,32.426-12.952a168.334,168.334,0,0,0,14.22-10.869,137.9,137.9,0,0,0,13.043-12.137A33.767,33.767,0,0,0,273.935-411.686Z" transform="translate(-12.348 -6.925)" fill="#e5f9ff"/>
        <path id="Caminho_2030" data-name="Caminho 2030" d="M288.159-470.484c.362-1.268,3.442-3.623,5.163-4.619,3.351-1.9,4.529-4.166,4.982-5.706s2.355.634,1.449,2.808-3.895,5.072-1.9,4.71c2.083-.362,8.242-5.525,11.05-1.721,2.355,3.17-6.069,11.322-14.764,12.68C291.691-462.061,285.985-463.51,288.159-470.484Z" transform="translate(-27.115 -6.003)" fill="#ff6161"/>
      </g>
    </g>
    <path id="Caminho_2031" data-name="Caminho 2031" d="M1314.887,892.8l-50.114-31.82,28.05-35.479a8.207,8.207,0,1,0-12.861-10.2L1250.8,852.112l-50.558-31.931a8.274,8.274,0,1,0-8.87,13.969l49.005,31.044-27.718,35.035a8.248,8.248,0,0,0,1.33,11.531,8.216,8.216,0,0,0,11.531-1.33l28.716-36.366,51.666,32.707a8.168,8.168,0,0,0,11.42-2.55A8.133,8.133,0,0,0,1314.887,892.8Z" transform="translate(-17618.215 11466.368)" fill="#d44b4b"/>
  </g>
</svg>
